<svg width="16" height="15" viewBox="0 0 16 15" fill="none" xmlns="http://www.w3.org/2000/svg">
<path fill-rule="evenodd" clip-rule="evenodd" d="M2.04323 6.23061C2.08677 6.18696 2.1385 6.15232 2.19545 6.12869C2.2524 6.10506 2.31345 6.0929 2.37511 6.0929C2.43676 6.0929 2.49781 6.10506 2.55476 6.12869C2.61171 6.15232 2.66344 6.18696 2.70698 6.23061L8.0001 11.5247L13.2932 6.23061C13.3812 6.14259 13.5006 6.09314 13.6251 6.09314C13.7496 6.09314 13.869 6.14259 13.957 6.23061C14.045 6.31863 14.0944 6.43801 14.0944 6.56248C14.0944 6.68696 14.045 6.80634 13.957 6.89436L8.33198 12.5194C8.28844 12.563 8.23671 12.5976 8.17976 12.6213C8.12281 12.6449 8.06176 12.6571 8.0001 12.6571C7.93845 12.6571 7.8774 12.6449 7.82045 12.6213C7.7635 12.5976 7.71177 12.563 7.66823 12.5194L2.04323 6.89436C1.99958 6.85082 1.96494 6.79909 1.94131 6.74214C1.91768 6.68519 1.90552 6.62414 1.90552 6.56248C1.90552 6.50083 1.91768 6.43978 1.94131 6.38283C1.96494 6.32588 1.99958 6.27415 2.04323 6.23061Z" fill="#000507" fill-opacity="0.5"/>
<path fill-rule="evenodd" clip-rule="evenodd" d="M2.04323 2.48061C2.08677 2.43696 2.1385 2.40232 2.19545 2.37869C2.2524 2.35506 2.31345 2.3429 2.37511 2.3429C2.43676 2.3429 2.49781 2.35506 2.55476 2.37869C2.61171 2.40232 2.66344 2.43696 2.70698 2.48061L8.0001 7.77467L13.2932 2.48061C13.3368 2.43703 13.3886 2.40245 13.4455 2.37887C13.5024 2.35528 13.5635 2.34314 13.6251 2.34314C13.6867 2.34314 13.7478 2.35528 13.8047 2.37887C13.8617 2.40245 13.9134 2.43703 13.957 2.48061C14.0006 2.52419 14.0351 2.57593 14.0587 2.63287C14.0823 2.68982 14.0944 2.75085 14.0944 2.81248C14.0944 2.87412 14.0823 2.93515 14.0587 2.99209C14.0351 3.04904 14.0006 3.10078 13.957 3.14436L8.33198 8.76936C8.28844 8.81301 8.23671 8.84764 8.17976 8.87128C8.12281 8.89491 8.06176 8.90707 8.0001 8.90707C7.93845 8.90707 7.8774 8.89491 7.82045 8.87128C7.7635 8.84764 7.71177 8.81301 7.66823 8.76936L2.04323 3.14436C1.99958 3.10082 1.96494 3.04909 1.94131 2.99214C1.91768 2.93519 1.90552 2.87414 1.90552 2.81248C1.90552 2.75083 1.91768 2.68978 1.94131 2.63283C1.96494 2.57588 1.99958 2.52415 2.04323 2.48061Z" fill="#000507" fill-opacity="0.5"/>
</svg>
