<svg width="16" height="20" viewBox="0 0 16 20" fill="none" xmlns="http://www.w3.org/2000/svg">
<g id="Vector">
<path d="M0.250007 7.50023C0.249968 6.26175 0.556629 5.04253 1.14261 3.95144C1.72858 2.86035 2.57564 1.93136 3.60814 1.24741C4.64064 0.563455 5.82644 0.145837 7.05967 0.0318405C8.29289 -0.0821557 9.53516 0.111019 10.6755 0.594116C11.8159 1.07721 12.8189 1.83519 13.595 2.80038C14.371 3.76557 14.896 4.90791 15.123 6.12542C15.3499 7.34292 15.2719 8.59769 14.8958 9.77768C14.5197 10.9577 13.8572 12.0262 12.9675 12.8877C12.7138 13.1327 12.5188 13.3877 12.4013 13.6615L11.4488 15.8727C11.4004 15.9848 11.3203 16.0803 11.2184 16.1474C11.1164 16.2144 10.997 16.2502 10.875 16.2502C11.0408 16.2502 11.1997 16.3161 11.3169 16.4333C11.4342 16.5505 11.5 16.7095 11.5 16.8752C11.5 17.041 11.4342 17.2 11.3169 17.3172C11.1997 17.4344 11.0408 17.5002 10.875 17.5002C11.0408 17.5002 11.1997 17.5661 11.3169 17.6833C11.4342 17.8005 11.5 17.9595 11.5 18.1252C11.5 18.291 11.4342 18.45 11.3169 18.5672C11.1997 18.6844 11.0408 18.7502 10.875 18.7502L10.595 19.309C10.4913 19.5166 10.3318 19.6912 10.1344 19.8133C9.93704 19.9354 9.70958 20.0001 9.4775 20.0002H6.0225C5.79043 20.0001 5.56297 19.9354 5.3656 19.8133C5.16823 19.6912 5.00874 19.5166 4.905 19.309L4.62501 18.7502C4.45925 18.7502 4.30027 18.6844 4.18306 18.5672C4.06585 18.45 4.00001 18.291 4.00001 18.1252C4.00001 17.9595 4.06585 17.8005 4.18306 17.6833C4.30027 17.5661 4.45925 17.5002 4.62501 17.5002C4.45925 17.5002 4.30027 17.4344 4.18306 17.3172C4.06585 17.2 4.00001 17.041 4.00001 16.8752C4.00001 16.7095 4.06585 16.5505 4.18306 16.4333C4.30027 16.3161 4.45925 16.2502 4.62501 16.2502C4.50274 16.2504 4.38311 16.2148 4.2809 16.1477C4.1787 16.0806 4.09842 15.985 4.05001 15.8727L3.09876 13.6602C2.96156 13.3686 2.76928 13.1063 2.53251 12.8877C1.80931 12.1894 1.23441 11.3523 0.842225 10.4266C0.450037 9.50089 0.248614 8.50558 0.250007 7.50023ZM7.75 1.25024C6.50521 1.25003 5.28871 1.62153 4.2564 2.31713C3.22409 3.01273 2.42302 4.00074 1.95583 5.15453C1.48864 6.30833 1.37663 7.57536 1.63415 8.79322C1.89167 10.0111 2.50699 11.1243 3.40126 11.9902C3.73001 12.3077 4.04376 12.6952 4.24625 13.1665L5.0375 15.0002H10.465L11.255 13.1665C11.4575 12.6952 11.7713 12.3077 12.1 11.9902C12.9943 11.1242 13.6097 10.0109 13.8672 8.79292C14.1247 7.57493 14.0125 6.30781 13.5452 5.15395C13.0779 4.0001 12.2766 3.01211 11.2441 2.3166C10.2116 1.6211 8.9949 1.24978 7.75 1.25024Z" fill="black" fill-opacity="0.5"/>
<path d="M7.75 1.25024C6.50521 1.25003 5.28871 1.62153 4.2564 2.31713C3.22409 3.01273 2.42302 4.00074 1.95583 5.15453C1.48864 6.30833 1.37663 7.57536 1.63415 8.79322C1.89167 10.0111 2.50699 11.1243 3.40126 11.9902C3.73001 12.3077 4.04376 12.6952 4.24625 13.1665L5.0375 15.0002H10.465L11.255 13.1665C11.4575 12.6952 11.7713 12.3077 12.1 11.9902C12.9943 11.1242 13.6097 10.0109 13.8672 8.79292C14.1247 7.57493 14.0125 6.30781 13.5452 5.15395C13.0779 4.0001 12.2766 3.01211 11.2441 2.3166C10.2116 1.6211 8.9949 1.24978 7.75 1.25024Z" fill="#FAE20B" fill-opacity="0.5"/>
</g>
</svg>
