<svg width="16" height="21" viewBox="0 0 16 21" fill="none" xmlns="http://www.w3.org/2000/svg">
<path d="M0.750007 8.00011C0.749968 6.76163 1.05663 5.54241 1.64261 4.45132C2.22858 3.36023 3.07564 2.43124 4.10814 1.74728C5.14064 1.06333 6.32644 0.645715 7.55967 0.531718C8.79289 0.417722 10.0352 0.610897 11.1755 1.09399C12.3159 1.57709 13.3189 2.33507 14.095 3.30026C14.871 4.26544 15.396 5.40779 15.623 6.62529C15.8499 7.8428 15.7719 9.09757 15.3958 10.2776C15.0197 11.4576 14.3572 12.526 13.4675 13.3876C13.2138 13.6326 13.0188 13.8876 12.9013 14.1614L11.9488 16.3726C11.9004 16.4847 11.8203 16.5801 11.7184 16.6472C11.6164 16.7143 11.497 16.7501 11.375 16.7501C11.5408 16.7501 11.6997 16.816 11.8169 16.9332C11.9342 17.0504 12 17.2093 12 17.3751C12 17.5409 11.9342 17.6998 11.8169 17.817C11.6997 17.9343 11.5408 18.0001 11.375 18.0001C11.5408 18.0001 11.6997 18.066 11.8169 18.1832C11.9342 18.3004 12 18.4593 12 18.6251C12 18.7909 11.9342 18.9498 11.8169 19.067C11.6997 19.1843 11.5408 19.2501 11.375 19.2501L11.095 19.8089C10.9913 20.0165 10.8318 20.1911 10.6344 20.3132C10.437 20.4352 10.2096 20.5 9.9775 20.5001H6.5225C6.29043 20.5 6.06297 20.4352 5.8656 20.3132C5.66823 20.1911 5.50874 20.0165 5.405 19.8089L5.12501 19.2501C4.95925 19.2501 4.80027 19.1843 4.68306 19.067C4.56585 18.9498 4.50001 18.7909 4.50001 18.6251C4.50001 18.4593 4.56585 18.3004 4.68306 18.1832C4.80027 18.066 4.95925 18.0001 5.12501 18.0001C4.95925 18.0001 4.80027 17.9343 4.68306 17.817C4.56585 17.6998 4.50001 17.5409 4.50001 17.3751C4.50001 17.2093 4.56585 17.0504 4.68306 16.9332C4.80027 16.816 4.95925 16.7501 5.12501 16.7501C5.00274 16.7503 4.88311 16.7147 4.7809 16.6476C4.6787 16.5805 4.59842 16.4849 4.55001 16.3726L3.59876 14.1601C3.46156 13.8685 3.26928 13.6062 3.03251 13.3876C2.30931 12.6892 1.73441 11.8522 1.34222 10.9265C0.950037 10.0008 0.748614 9.00546 0.750007 8.00011ZM8.25 1.75011C7.00521 1.7499 5.78871 2.1214 4.7564 2.817C3.72409 3.5126 2.92302 4.50061 2.45583 5.65441C1.98864 6.80821 1.87663 8.07523 2.13415 9.2931C2.39167 10.511 3.00699 11.6242 3.90126 12.4901C4.23001 12.8076 4.54376 13.1951 4.74625 13.6664L5.5375 15.5001H10.965L11.755 13.6664C11.9575 13.1951 12.2713 12.8076 12.6 12.4901C13.4943 11.6241 14.1097 10.5108 14.3672 9.29279C14.6247 8.07481 14.5125 6.80768 14.0452 5.65383C13.5779 4.49998 12.7766 3.51198 11.7441 2.81648C10.7116 2.12097 9.4949 1.74965 8.25 1.75011Z" fill="black" fill-opacity="0.5"/>
</svg>
